<?xml version="1.0" encoding="UTF-8"?>
<svg id="Layer_2" data-name="Layer 2" xmlns="http://www.w3.org/2000/svg" viewBox="0 0 104.55 59.59">
  <defs>
    <style>
      .cls-1 {
        fill: #ff0d0d;
      }

      .cls-1, .cls-2, .cls-3 {
        stroke-width: 0px;
      }

      .cls-3 {
        fill: #7ab931;
      }
    </style>
  </defs>
  <g id="_1680" data-name="1680">
    <g id="Menu_Navigation" data-name="Menu/Navigation">
      <g>
        <path class="cls-2" d="m8.53,51.44H3.77c-1.09,0-1.99-.36-2.7-1.09-.71-.72-1.07-1.64-1.07-2.74s.35-1.98,1.06-2.65c.71-.67,1.61-1.01,2.71-1.01h4.23v1.31H3.77c-.72,0-1.31.23-1.77.69-.46.46-.7,1.05-.7,1.78s.23,1.3.7,1.74c.46.45,1.05.67,1.77.67h3.45v-1.63h-3.55v-1.2h4.86v4.13Z"/>
        <path class="cls-2" d="m15.85,51.44h-6.46v-7.49h1.31v6.19h5.15v1.31Z"/>
        <path class="cls-2" d="m26.29,47.61c0,1.1-.35,2.02-1.06,2.74-.71.72-1.61,1.09-2.71,1.09h-2.09c-1.09,0-1.99-.36-2.7-1.09-.71-.72-1.07-1.64-1.07-2.74s.35-1.98,1.06-2.65c.71-.67,1.61-1.01,2.71-1.01h2.09c1.11,0,2.02.34,2.72,1.01.7.67,1.05,1.56,1.05,2.65Zm-1.29.11c0-.72-.23-1.32-.7-1.78-.46-.46-1.06-.69-1.78-.69h-2.09c-.72,0-1.31.23-1.77.69-.46.46-.7,1.05-.7,1.78s.23,1.3.7,1.74c.46.45,1.05.67,1.77.67h2.09c.72,0,1.32-.22,1.78-.67.46-.45.7-1.03.7-1.74Z"/>
        <path class="cls-2" d="m35.78,49.25c0,.32-.08.63-.24.91-.48.84-1.4,1.26-2.74,1.26h-5.37v-7.49h5.37c1.28,0,2.18.4,2.69,1.2.2.32.3.67.3,1.03,0,.62-.26,1.14-.79,1.57.53.41.79.92.79,1.52Zm-1.26-3.1c0-.31-.18-.56-.55-.72-.29-.12-.61-.19-.98-.19h-4.27v4.88h4.27c.36,0,.68-.05.95-.16.38-.16.57-.39.57-.69s-.19-.54-.57-.7c-.29-.12-.6-.18-.95-.18h-3.5v-1.31h3.5c.37,0,.69-.07.98-.2.37-.17.55-.41.55-.73Z"/>
        <path class="cls-2" d="m53.52,51.44h-6.46v-7.49h1.31v6.19h5.15v1.31Z"/>
        <path class="cls-2" d="m65.81,51.44h-4.23c-1.09,0-1.99-.36-2.7-1.09s-1.07-1.64-1.07-2.74.35-1.98,1.06-2.65c.71-.67,1.61-1.01,2.71-1.01h4.23v1.31h-4.23c-.72,0-1.31.23-1.77.69-.46.46-.7,1.05-.7,1.78s.23,1.3.7,1.74c.46.45,1.05.67,1.77.67h4.23v1.31Z"/>
        <path class="cls-2" d="m76.51,47.61c0,1.1-.35,2.02-1.06,2.74-.71.72-1.61,1.09-2.71,1.09h-2.09c-1.09,0-1.99-.36-2.7-1.09s-1.07-1.64-1.07-2.74.35-1.98,1.06-2.65c.71-.67,1.61-1.01,2.71-1.01h2.09c1.11,0,2.02.34,2.72,1.01.7.67,1.05,1.56,1.05,2.65Zm-1.29.11c0-.72-.23-1.32-.7-1.78-.46-.46-1.06-.69-1.78-.69h-2.09c-.72,0-1.31.23-1.77.69-.46.46-.7,1.05-.7,1.78s.23,1.3.7,1.74c.46.45,1.05.67,1.77.67h2.09c.72,0,1.32-.22,1.78-.67.46-.45.7-1.03.7-1.74Z"/>
        <path class="cls-2" d="m95.66,51.44h-4.22c-1.09,0-1.99-.36-2.7-1.09s-1.07-1.64-1.07-2.74.35-1.98,1.06-2.65c.71-.67,1.61-1.01,2.71-1.01h4.22v1.31h-4.22c-.72,0-1.31.23-1.77.69-.46.46-.7,1.05-.7,1.78s.23,1.3.7,1.74c.46.45,1.05.67,1.77.67h4.22v1.31Z"/>
        <path class="cls-2" d="m32.21,58.19c0,.43-.15.78-.46,1.04-.29.24-.66.37-1.1.37h-3.46v-.79h3.46c.22,0,.41-.05.57-.15.18-.12.27-.28.27-.49s-.09-.36-.28-.47c-.16-.09-.34-.14-.56-.14h-2.14c-.39,0-.72-.11-.99-.33-.28-.23-.43-.55-.43-.93s.14-.69.43-.92c.27-.22.6-.33.99-.33h3.42v.79h-3.42c-.15,0-.28.04-.39.13-.11.08-.16.2-.16.34s.05.26.16.34c.11.08.23.12.39.12h2.14c.44,0,.8.13,1.1.38.31.27.46.61.46,1.04Z"/>
        <path class="cls-2" d="m54.8,59.59h-3.92v-4.54h.79v3.75h3.13v.79Z"/>
        <path class="cls-2" d="m65.3,59.59h-3.92v-4.54h3.92v.79h-3.13v2.96h3.13v.79Zm-.21-1.91h-2.59v-.79h2.59v.79Z"/>
        <path class="cls-2" d="m77.02,58.19c0,.43-.15.78-.46,1.04-.29.24-.66.37-1.1.37h-3.46v-.79h3.46c.22,0,.41-.05.57-.15.18-.12.27-.28.27-.49s-.09-.36-.28-.47c-.16-.09-.34-.14-.56-.14h-2.14c-.39,0-.72-.11-.99-.33-.28-.23-.43-.55-.43-.93s.14-.69.43-.92c.27-.22.6-.33.99-.33h3.42v.79h-3.42c-.15,0-.28.04-.39.13-.11.08-.16.2-.16.34s.05.26.16.34c.11.08.23.12.39.12h2.14c.44,0,.8.13,1.1.38.31.27.46.61.46,1.04Z"/>
        <rect class="cls-2" y="57.32" width="21.48" height=".38"/>
        <rect class="cls-2" x="82.62" y="57.32" width="21.48" height=".38"/>
        <path class="cls-2" d="m43.27,45.47h.01s-.25-.42-.25-.42l-.23-.4c-.04-.07-.08-.13-.13-.19l-.37-.6h-1.04l-.38.62c-.04.05-.08.11-.11.17l-.49.81h0s-3.58,5.96-3.58,5.96h1.68l3.38-5.55,1.31,2.16.78,1.29,1.26,2.09h1.68s-3.49-5.95-3.49-5.95Z"/>
        <path class="cls-2" d="m83.63,45.47h.01s-.25-.42-.25-.42l-.23-.4c-.04-.07-.08-.13-.13-.19l-.37-.6h-1.04l-.38.62c-.04.05-.08.11-.11.17l-.49.81h0s-3.58,5.96-3.58,5.96h1.68l3.38-5.55,1.31,2.16.78,1.29,1.26,2.09h1.68s-3.49-5.95-3.49-5.95Z"/>
        <path class="cls-2" d="m42.59,56h0s-.15-.25-.15-.25l-.14-.24s-.05-.08-.08-.11l-.22-.36h-.63l-.23.38s-.05.07-.07.1l-.29.49h0s-2.16,3.59-2.16,3.59h1.01l2.03-3.34.79,1.3.47.78.76,1.26h1.01s-2.1-3.58-2.1-3.58Z"/>
        <polygon class="cls-3" points="64.6 14.9 52.36 14.9 52.36 19.87 64.6 19.87 64.6 22.27 64.6 29.7 64.6 32.11 69.57 32.11 69.57 19.87 69.57 14.9 64.6 14.9"/>
        <path class="cls-1" d="m52.36,29.8c-6.85,0-12.42-5.57-12.42-12.42s5.57-12.42,12.42-12.42c2.72,0,5.23.88,7.28,2.37V1.6c-2.22-1.03-4.68-1.6-7.28-1.6-9.58,0-17.38,7.8-17.38,17.38s7.8,17.38,17.38,17.38c2.6,0,5.06-.58,7.28-1.6v-5.73c-2.05,1.49-4.56,2.36-7.28,2.36Z"/>
        <path class="cls-2" d="m98.25,51.44h-1.31v-7.49h1.31v7.49Zm6.3,0h-1.31v-3.11h-4.4v-1.31h4.4v-3.07h1.31v7.49Z"/>
      </g>
    </g>
  </g>
</svg>